<?xml version="1.0" encoding="iso-8859-1"?>
<!-- Uploaded to: SVG Repo, www.svgrepo.com, Generator: SVG Repo Mixer Tools -->
<svg fill="#000000" height="800px" width="800px" version="1.1" id="Capa_1" xmlns="http://www.w3.org/2000/svg" xmlns:xlink="http://www.w3.org/1999/xlink" 
	 viewBox="0 0 297 297" xml:space="preserve">
<g>
	<path d="M225.333,0.636c-13.335,0-25.043,2.609-35.123,6.366c0.53,1.689,0.989,3.432,1.249,5.227
		c0.554,3.827,0.48,7.75-0.243,11.684c9.453-4.152,20.98-7.277,34.273-7.277c15.436,0,29.481,5.719,39.842,16.103
		C275.539,42.97,281,56.784,281,71.636v154c0,10.83-2.431,21.026-7.261,29.668c-0.041-3.464-0.327-7.098-1.046-10.907l-6.327-33.757
		l-2.511-13.42c-4.771-25.286-11.176-38.648-14.868-44.69c1.563-5.494,3.569-15.579,1.487-26.617
		c-2.667-14.132-8.706-24.616-19.517-33.792l-19.756-34.285c-1.571-2.726-4.607-4.283-7.727-3.966
		c-3.132,0.313-5.789,2.434-6.789,5.417l-6.339,18.91c-2.708,0.161-5.574,0.53-8.681,1.115l-5.3,1.001
		c-3.085,0.582-5.902,1.287-8.498,2.13l-12.772-15.214c-2.021-2.408-5.262-3.408-8.292-2.558c-3.026,0.851-5.274,3.395-5.745,6.503
		l-5.918,39.077c-6.723,12.483-8.53,24.44-5.867,38.556c2.088,11.068,7.7,19.731,11.204,24.27
		c-1.194,6.963-2.23,21.708,2.531,46.946l8.9,47.177c2.107,11.169,6.677,18.935,13.971,23.74c7.666,5.051,16.95,5.764,24.183,5.82
		c1.016,0.008,2.525,0.012,4.374,0.012c4.61,0,11.407-0.021,17.896-0.049c9.618-0.039,18.562-0.087,18.711-0.088
		c0.17-0.001,0.172-0.01,0.341-0.022C268.948,296.141,297,265.797,297,225.636v-154C297,31.823,265.614,0.636,225.333,0.636z"/>
	<path d="M127.286,222.968c-4.046-21.445-4.202-36.358-3.424-45.724c-3.883-6.075-8.307-14.846-10.312-25.473
		c-3.126-16.567-1.11-31.795,6.163-46.509l3.691-24.371c-0.901-0.203-1.819-0.398-2.771-0.578l-5.304-1.001
		c-3.104-0.585-5.97-0.954-8.678-1.115l-6.339-18.91c-1-2.983-3.657-5.104-6.789-5.417c-3.136-0.317-6.156,1.239-7.728,3.966
		L66.041,92.121c-10.811,9.176-16.853,19.66-19.52,33.793c-2.082,11.037-0.082,21.122,1.481,26.616
		c-3.692,6.042-10.108,19.404-14.879,44.69l-8.9,47.177c-0.629,3.333-1.152,6.528-1.261,9.598C18.534,245.631,16,235.912,16,225.636
		v-154c0-30.841,24.764-55,56.166-55c12.691,0,23.872,2.894,33.103,6.81c-0.645-3.778-0.677-7.543-0.145-11.218
		c0.279-1.928,0.758-3.796,1.347-5.6c-9.842-3.554-21.43-5.992-34.315-5.992C31.782,0.636,0,31.823,0,71.636v154
		c0,39.663,27.83,69.748,64.88,70.943c0.104,0.008,0.286,0.021,0.39,0.03c0.2,0.017,0.443,0.025,0.644,0.026
		c0.251,0.001,25.186,0.137,36.628,0.137c1.849,0,3.369-0.004,4.384-0.012c11.601-0.091,24.876-2.147,32.686-14.68
		c-1.472-3.693-2.622-7.684-3.429-11.963L127.286,222.968z"/>
	<path d="M148.49,49.47c37.505-23.93,27.104-45.249,17.174-48.428c-8.372-2.673-14.299,1.549-17.174,7.911
		c-3.453-5.698-8.802-10.584-17.17-7.911C121.386,4.221,110.984,25.541,148.49,49.47z"/>
</g>
</svg>